/* XPM */
static char *result[] = {
/* columns rows colors chars-per-pixel */
"64 64 94 2 ",
"   c #000000",
".  c #00000D",
"X  c #0B0B0B",
"o  c #000013",
"O  c #0A0A14",
"+  c #00001E",
"@  c #151515",
"#  c #1C1C1C",
"$  c #000023",
"%  c #00002C",
"&  c #1C1C24",
"*  c #13132A",
"=  c #1B1B2A",
"-  c #000033",
";  c #00003C",
":  c #0A0A3D",
">  c #151532",
",  c #1B1B34",
"<  c #1E1E3D",
"1  c #232323",
"2  c #2B2B2B",
"3  c #21213D",
"4  c #323232",
"5  c #35353B",
"6  c gray24",
"7  c #000043",
"8  c #0A0A46",
"9  c #00004C",
"0  c #0A0A4D",
"q  c #161645",
"w  c #1E1E44",
"e  c #16164A",
"r  c #1A1A4B",
"t  c #000054",
"y  c #0A0A53",
"u  c #00005C",
"i  c #0A0A5B",
"p  c #161651",
"a  c #1E1E53",
"s  c #212145",
"d  c #24244D",
"f  c #2A2A4A",
"g  c #3A3A47",
"h  c #202052",
"j  c #343450",
"k  c #34345C",
"l  c #000063",
"z  c #0A0A64",
"x  c #00006B",
"c  c #0A0A69",
"v  c #161661",
"b  c #000073",
"n  c #080872",
"m  c #00007B",
"M  c #0A0A7B",
"N  c #2B2B62",
"B  c #353569",
"V  c #444444",
"C  c #494949",
"Z  c #444457",
"A  c #4C4C55",
"S  c #48485A",
"D  c #545454",
"F  c #5B5B5B",
"G  c #424261",
"H  c #424273",
"J  c #636363",
"K  c #6D6D6D",
"L  c #737373",
"P  c #7B7B7B",
"I  c #000084",
"U  c #0A0A84",
"Y  c #00008C",
"T  c #0A0A89",
"R  c #000093",
"E  c #00009C",
"W  c #0000A3",
"Q  c #0000AB",
"!  c #0000B3",
"~  c #0000BA",
"^  c #0000C2",
"/  c #0000CB",
"(  c #0303D4",
")  c #0303DB",
"_  c #1111E5",
"`  c #2525EF",
"'  c #838383",
"]  c #8B8B8B",
"[  c #929292",
"{  c gray62",
"}  c #A6A6A6",
"|  c #AAAAAA",
" . c gray73",
".. c #C5C5C5",
/* pixels */
"f n n n n n n n n n n n n n n n n n n n n n n n n n n v 6 f c n n n n n n n n n n n v 6 f n n n n n n n n n n n v f n n n n p 5 ",
"e E W E E E W E E E E E E E E E E E W E E E R R Y I m z 1 e E W E E E E E E Y Y I I c 1 e E W E E E W E E I I x y r Q W Q W n 1 ",
"- W W E R E Y W W R Y E R Y E E R I Y E Y I m I m b l 7 X e W W E R R W W R Y I I m 7 X e Q ! ! ! ! ! ~ ! ! Q Y t ; ! W R R l X ",
"- W R I Y E R R Y W W Q W Y I Y b I m Y R Y m m x l u ; X e W E W E Y E R I I Y R x ; X e W ! ~ ! Q ~ ^ ! ! W R t - W Q W I 7   ",
"- E R Y I Y I Y m Y W ! ! W Y b I x b m I m b l u u u 7 X e E R Y Y R R I I m x l l ; X e Q ~ Q ! ^ ~ ! W R Y I 9 % Y m I b ;   ",
"- E I Y E E Y m R Y I W Q Q Y I I b x b x b m b x l u 7 X e W E Y W E m b b b m u u ; X e Q ! ! / ) ~ Q ! E Y b t - Y m b l ;   ",
"- W R I R Q Q E W Y m I Y R I m m l m b l l u 9 t t t ; X e W W E Y Y b m I I I l l ; X e Q ! ! ! ^ ! E I I m m 9 - Y b u u ;   ",
"- W E R R ! Q E R m l b I I I Y m x b x l l u ; 7 7 t ; X q W E I I I I I I I b l u ; X e W ! ~ Q Q ! E b u l b t - Y l u u ;   ",
"- W R I R R Y R Y b l l m Y m m u t u x x b b u 7 7 9 - X e W R Y I m Y E R m b x u 7 X e Q ! ^ Q ! ! E x u l x 7 . o . . o .   ",
"- E Y Y R R m I I m b u u b m b t 7 7 t x m m b u t 7 % X e E Y I b m I Y I b l l u ; X e W ! ! Q Q W E Y Y b l ; $ Y R R R u   ",
"- Y I Y Y x x m Y m b l l l m l l 7 7 t l b m m l t 7 % X q R I b b b Y I b b u u u ; X e Q ! ~ ! Q ! E Y I b l 7 - Q Q W W l   ",
"- R Y Y m l l l b m m m b m b u l u 9 9 u l b x u t 9 % X q R I m b x m m l x l l u ; X e Q ! ~ ~ Q E R E Y b l 7 - E E Y Y 9   ",
"% R I Y b l l x b x b x b l l l u x t u l u 7 7 7 7 7 % X q R I m b x x x x u u l l ; X e W ! ~ ! W E Y I I x u ; - E E Y x 7   ",
"- R Y I m b x l u l y = , = = = = = = = = = & & & & & & # & , = = = = & = = = = = = & # & , , , , , , , e m b u 7 % Y Y m l 9   ",
"- R I Y x x x x b l y 6 P P K K K K L K K K K K K K K K K K K K K K K K K K K K K L K L K K K K K F D 6 w x l u ; % m x l u ;   ",
"  o o o . o . . o o O 6 ' J A D D D C D C D D C D D A D D D C D D A D D D C D D D C D C D A D D D C C V < u u l ;   o . . . .   ",
"R E R Y R Y Y Y Y R n 6 K C C C C C C C C C C C C C C C C C C C C C C C C C C C C C C C C C C C C C V 6 w b u u ; + b Q Q Q Q Y ",
"! ! W E Q ! Q E R W M 6 K C 5 X X X X X X X X X X X X X X X X X X X X X X X X X X X X X X X X X # D C 6 w m x u ; % E / / ( ^ Q ",
"~ Q R R R W W Y I E n 6 K C 4     X 2 #         X 2 #         X 2 #         X 2 #       X 2 #   # D C 6 w m x u 7 - Q / _ ` / W ",
"Q W E W E E R m m Y n 6 K C 4     # C 1         # C 1         # C 1         # C 1       # C 1   # F C 6 < l u l 7 - ! / ( ) ~ Q ",
"E Y E ! ! R I I R R z 6 K C 4     # D 2         # D 1         # D 1         # D 1       # D 1   1 F C 6 w x l u ; - ! / ^ ! Q E ",
"W E R W Q W E Y m m 0 6 K C 4     1 D 1         1 D 2         # D 1         1 D 2       1 D 2   1 K C 6 w l u u ; ; ~ / ~ ~ ~ Y ",
"W Y I Y E W E m I I 0 6 K C 4     1 F 1         # F 2         1 D 1         1 D 1       1 D 2   1 K C 6 < l t u ; ; ~ ^ ! ~ Q R ",
"Q R Y R I R Y R Y m y 6 K C 4     # D 1         1 D 1         1 F 2         1 F 1       1 D 1   2 K C 6 w l u u ; ; ~ ^ Q W W W ",
"! W R R W R R E Y m i g K C 2     1 D 1         1 D 2         # D 1         1 D 2       1 D 1   1 K C V f u l t ; - ! / ~ ! ^ Q ",
"Q E I I Y Y m b I Y y 6 K C 4     1 F 1         # D 1         1 D 2         1 D 1       1 D 1   1 K C D G l l l ; - Q ~ ~ ^ ~ E ",
"W Y I Y E Y m Y Y m y 6 K C 4     # D 1         1 D 1         1 D 1         # D 1       # D 1   2 K C V f l u l 7 - Q / / ^ Q R ",
"W E W E E W R b b b 0 6 K C 4     1 D 2         1 D 2         # D 2         # F 2       1 D 2   1 K C D G l l x ; % W / / ^ Q E ",
"E Y Y I Y W E m l x 8 6 K C 4     1 D 2         # D 1         1 F 1         1 D 1       1 D 1   2 K C D G u u u 7 % E ~ ! / ~ Y ",
"W E E R I I Y I x l 8 6 K C 4     # D 2         # F 2         1 D 1         1 D 1       1 F 1   1 K V C j t t 7 % % E / ^ ~ ! E ",
"R R W W R m b l l u 8 6 K C 4     # D 1         1 D 1         # D 2         1 D 2       # D 2   2 K C 6 3 l u ; % % E / / Q E Y ",
"R Y R W E I I I m l 8 6 K C 4     1 F 1         1 D 1         1 D 1         1 D 1       1 D 1   1 K C 6 w b b t - % E ^ ! ~ W I ",
"R Y E Y m m I I m l 8 6 K C C C F K D C C 4     1 F 2         1 F 1         1 D 2       1 D 1   2 K C V w x b u - % E ~ ! ~ Y m ",
"E W R Y I b x x u 9 8 6 K C C C C C C C C 4     # D 1         # F 1         1 D 1       1 D 1   1 K C 6 w m l u - % E / ! R R m ",
"Y R R I m I m l 9 ; : 6 K C C V C C C C C 4     1 D 1         1 D 1         # D 1       # D 1   2 K C 6 w I b l ; $ Y ^ ! ! R m ",
"I Y I m m Y m l t 9 : 6 K C C C C C C C C 4     1 D 1         1 D 2         # F 2       1 D 2   1 K C 6 w m b l ; $ Y ^ Q E R b ",
"m m x b b x l l u u 8 6 K C V C C 4 1 C C 2     # D 1         # F 1         1 D 1       1 D 1   1 K C 6 w l l u ; $ I ! Q R Y b ",
"I Y b b b l l l u t 8 6 K C 5 1 5 @ 1 6 C 4     1 D 2         1 D 1         1 D 1       1 F 1   2 K C 6 w x u u ; $ I Q R R R x ",
"m Y Y m b b l t 9 9 : 6 K C 6 2 4 X 2 4 C 4     1 D 1         1 D 2         1 D 2       # D 2   1 K C 6 < t 7 9 ; $ I Q R R R b ",
"I R m b l u u t u t 8 6 K C V C 4 @ 6 6 C 4     1 F 1         # D 1         1 D 1       1 D 1   2 K C 6 < t ; 7 - $ m E E R I m ",
"o + o . . . . . . . O 6 K C C C 6 6 C 5 C 2     1 D 1         1 F 2         1 F 1       # D 2   2 K C 6 s u t 9 ;   o o + o o o ",
"# # # # # * 9 t l l y 6 K V C C V 6 6 V C 4     # F 2         1 D 1         # D 1       1 D 1   2 K C 6 < u t t ; X > u u u 7   ",
"# q U R E Q Q Q ! ! U 6 K C C C C V V C C 4     # D 1         # F 1         1 F 2       1 D 2   1 K C 6 < u u l ; X > x l x 7   ",
"1 q Q ~ ~ ~ ~ ~ Q Q U 6 K C C V C C C C C 4     1 F 1         1 D 1         # D 1       1 D 1   1 K C 6 & . . . . X > u u l 9   ",
"1 e Q ~ ! Q Q ! ! ~ T 6 K C C C C C C C C 4     # D 1         # D 2         # D 1       1 D 1   2 K C 6 2 # # 1 # 1 1 & = 1 *   ",
"# a ~ ~ ! ! ! ~ ~ ! U 6 K V 5 X X X X X X X     1 F 2         1 D D K       1 F 2       1 D 1   1 K C 6 h W W W W W W E E R l   ",
"1 e ! Q Q Q ! Q ! Q M 6 K C 4     @ 6 1         # D 1       2 { | [ J 6     1 D 1       # D 1   2 K C 6 h Q ! ! Q W Q ! ! W u   ",
"1 p ~ ! Q R E ! Q W T 6 K C 4     # C 1         1 D 2       # F D C C 4     # D 1 X 2 4 V D 2   2 K C 6 h W Q Q W W ~ ! E R u   ",
"& p ~ ! E Q ! W R W U 6 K C 2     # D 1         1 D 1       2 ] ] K 2 X     1 D 2 6 J K K D 5 1 1 K V 6 h E Q W R Y Y R m I t   ",
"1 e ~ ~ ~ ! E E W E U 6 K C 4     # F 1         1 D 2       1 K K F 1       1 D 2 6 } ] P D 6 1 2 K C C B W Q W R E R I m m t   ",
"1 p ! Q ! E W Q ~ W n 6 K C 4     1 F 1         1 D 1       X 4 J 6 4 2 4 C D D 1 X D  .[ D V 6 1 K C D H W E R R E Y Y I l ;   ",
"# p ~ Q E W ~ / ! E c V K C 4     1 D 1         # F 1         # F 2 X X 2 ' P D 1 X D ..| D C V 2 K C V N Q E E E m m R Y l ;   ",
"1 p ! Q Q ! _ ` / E n 6 K C 2     1 D 2         1 D 2         1 D 2   X 6 F P D 4 6 K C 4 D C C 1 K C C H R Y R I Y R I t t ;   ",
"# p ~ ! ! Q / ) ! R z 6 K C 4     # D 1         1 D 1         1 D 1 @ 6 6 C 6 F 2 @ F ' 6 D 6 4 1 K C D H Y E I m R E b 9 9 -   ",
"1 e ! ! ! Q ! Q Y Y z 5 K C 4     1 F 1         # D 2         # D 4 1 6 4 D 4 D C P [  .[ F 2 X 2 K C C k I R R R R I b u t -   ",
"& e Q ! W W E I I E z 6 K C 4     1 D 1         1 D 1         1 D 2 4 V 6 F D F 2 4 J 6 4 D 1   1 K C 6 s b I Y R m l u x l ;   ",
"1 p ! Q ! W Y R E I z 6 K C 4     1 D 2         1 D 1         1 F 4 2 6 5 C F F 1 X X   1 D 1   2 K C 6 < x b m x t 7 t x l ;   ",
"# p ! Q ! W Y Y m b z 6 K C 4     # D 1         # F 1 X # # # 4 D 2 1 4 V D J D V C 6 2 1 F 2   1 K C 6 w m x x l t ; 7 t u ;   ",
"1 e Q W Y Y R Y x m y 6 K C 4     1 D 2         1 D 4 # # 1 1 4 F 4 1 2 4 6 C F F ' C C C D 1   2 K C 6 w b x l l l 9 7 9 u ;   ",
"& p Q R b b m m R m i 6 K C 4     1 D 1       X 5 D 2 1 # 1 1 4 D 4 1 1 1 1 6 D 6 6 D C D D 1   1 K C g w b u l u u u u u u ;   ",
"1 q W E I m b m u t 8 6 K C 4     1 D 1     X # 4 F 4 # # # F L D 4 1 # # 1 4 F 6 4 C D D D 2   2 L D 6 w b u u u u l l t l 7   ",
"1 q W Y l x l x l l 0 5 F C C D F K L L K K K K L L L K K K P P P K K K K K K L K L P L L P K K ' P D 6 w m b l l u t 9 9 u 0 # ",
"5 d m m b m m b m m i 4 D C C C C D C D C D C D C D D C D C D D C D D D D C D D D C D C D C D C D F C 6 w m m b b m m b b b v 4 ",
"D A S S S S S S S Z g 4 4 4 4 4 4 4 4 4 2 4 4 4 4 4 4 4 2 4 2 2 4 4 2 4 4 4 4 2 2 4 4 4 4 4 4 4 4 4 4 4 5 S S S S S S S S S S V "
};
