/* XPM */
static char *result[] = {
/* columns rows colors chars-per-pixel */
"64 64 70 1 ",
"  c gray22",
". c #4B4039",
"X c #56463D",
"o c gray27",
"O c #484848",
"+ c gray31",
"@ c #5A4D44",
"# c #5A4F49",
"$ c #5A514D",
"% c #5B5B5B",
"& c #675B54",
"* c #716056",
"= c gray44",
"- c #777777",
"; c #7C7C7C",
": c #7E7E7E",
"> c gray50",
", c #B6744B",
"< c #C17B4A",
"1 c #E88C58",
"2 c #EB8F59",
"3 c #EB905C",
"4 c #DD9166",
"5 c #EE9E6C",
"6 c #FC9D63",
"7 c #F19C69",
"8 c #F69F6B",
"9 c #E69D72",
"0 c #FCA46E",
"q c #EBA277",
"w c #F1A676",
"e c #FCA673",
"r c #FCAE7D",
"t c #818181",
"y c #848484",
"u c #898989",
"i c gray55",
"p c #8E8E8E",
"a c #939393",
"s c #959595",
"d c gray59",
"f c #989898",
"g c #9A9A9A",
"h c #9B9B9B",
"j c #A5A5A5",
"k c gray66",
"l c #ACACAC",
"z c #B4B4B4",
"x c #B6B6B6",
"c c #EEAF87",
"v c #FCB080",
"b c #F9B086",
"n c #FCB285",
"m c #EBB69B",
"M c #FCB894",
"N c #FCBA97",
"B c #FCBC9C",
"V c #FCBF9F",
"C c #FCC7A8",
"Z c #FCC9AD",
"A c #FCCCB0",
"S c #C3C3C3",
"D c gray77",
"F c #D0D0D0",
"G c #D2D2D2",
"H c #D7D7D7",
"J c #E1E1E1",
"K c #F6F6F6",
"L c gray99",
"P c None",
/* pixels */
"PPPPPPPPPPPPPPPPPPPPPPPPPPPPPPPPPPPPPPPPPPPPPPPPPPPPPPPPPPPPPPPP",
"PPPPPPPPPPPPPPPPPPPPPPPPPPPPPPPPPPPPPPPPPPPPPPPPPPPPPPPPPPPPPPPP",
"PPPPPPPPPPPPPPPPPPPPPPPPPPPPPPPPPPPPPPPPPPPPPPPPPPPPPPPPPPPPPPPP",
"PPPPPPPPPPPPPPPPPPPPPPPPPPPPPPPPPPPPPPPPPPPPPPPPPPPPPPPPPPPPPPPP",
"PPPPPPPPPPPPPPPPPPPPPPPPPPPPPPPPPPPPPPPPPPPPPPPPPPPPPPPPPPPPPPPP",
"PPPPPPPPPPPPPPPPPPPPPPPPPPPPPPPPPPPPPPPPPPPPPPPPPPPPPPPPPPPPPPPP",
"PPPPPPPPPPPPPPPPPPPPPPPPPPPPPPPPPPPPPPPPPPPPPPPPPPPPPPPPPPPPPPPP",
"PPPPPPPPPPPPPPPPPPPPPPPPPPPPPPPPPPPPPPPPPPPPPPPPPPPPPPPPPPPPPPPP",
"PPPPPPPPPPPPPPPPPPPPPPPPPPPPPPPPPPPPPPPPPPPPPPPPPPPPPPPPPPPPPPPP",
"PPPPPPPPPPPPPPPPPPPPPPPPPPPPPPPPPPPPPPPPPPPPPPPPPPPPPPPPPPPPPPPP",
"PPPPPPPPPPPPPPPPPPPPPPPPPPPPPPPPPPPPPPPPPPPPPPPPPPPPPPPPPPPPPPPP",
"PPPPPPPPPPPPPPPPPPPPPPPPPPPPPPPPPPPPPPPPPPPPPPPPPPPPPPPPPPPPPPPP",
"PPPPPPPPPPPPPPPPPPPPPPPPPPPPPPPPPPPPPPPPPPPPPPPPPPPPPPPPPPPPPPPP",
"PPPPPPPPPPPPPPPPPPPPPPPPPPPPPPPPPPPPPPPPPPPPPPPPPPPPPPPPPPPPPPPP",
"PPPPPPPPPPPPPPPPPPPPPPPPPPPPPPPPPPPPPPPPPPPPPPPPPPPPPPPPPPPPPPPP",
"PPPPPPPPPPPPPPPPPPPPPPPPPPPPPPPPPPPPPPPPPPPPPPPPPPPPPPPPPPPPPPPP",
"PPPPPPPPPPPPPPPPPPPPPPPPPPPPPPPPPPPPPPPPPPPPPPPPPPPPPPPPPPPPPPPP",
"PPPPPPPPPPPPPPPPPPPPPPPPPPPPPPPPPPPPPPPPPPPPPPPPPPPPPPPPPPPPPPPP",
"PPPPPPPPPPPPPPPPPPPPPPPPPPPPPPPPPPPPPPPPPPPPPPPPPPPPPPPPPPPPPPPP",
"PPPPPPPPPPPPPPPPPPPPPPPPPPPPPPPPPPPPPPPPPPPPPPPPPPPPPPPPPPPPPPPP",
"PPPPPPPPPPPPPPPPPPPPPPPPPPPPPPPPPPPPPPPPPPPPPPPPPPPPPPPPPPPPPPPP",
"PPPPPPPPPPPPPPPPPPPPPPPPPPPPPPPPPPPPPPPPPPPPPPPPPPPPPPPPPPPPPPPP",
"PPPPPPPPPPPPPPPPPPPPPPPPPPPPPPPPPPPPPPPPPPPPPPPPPPPPPPPPPPPPPPPP",
"PPPPPPPPPPPPPPPPPPPPPPPPPPPPPPPPPPPPPPPPPPPPPPPPPPPPPPPPPPPPPPPP",
"PPPPPPPPPPPPPPPPPPPPPPPPPPPPPPPPPPPPPPPPPPPPPPPPPPPPPPPPPPPPPPPP",
"PPPPPPPPPPPPPPPPPPPPPPPPPPPPPPPPPPPPPPPPPPPPPPPPPPPPPPPPPPPPPPPP",
"PPPPPPPPPPPPPPPPPPPPPPPPPPPPPPPPPPPPPPPPPPPPPPPPPPPPPPPPPPPPPPPP",
"PPPPPPPPPPPPPPPPPPPPPPPPPPPPPPPPPPPPPPPPPPPPPPPPPPPPPPPPPPPPPPPP",
"PPPPPPPPPPPPPPPPPPPPPPPPPPPPPPPPPPPPPPPPPPPPPPPPPPPPPPPPPPPPPPPP",
"PPPPPPPPPPPPPPPPPPPPPPPPPPPPPPPPPPPPPPPPPPPPPPPPPPPPPPPPPPPPPPPP",
"PPPPPPPPPPPPPPPPPPPPPPPPPPPPPPPPPPPPPPPPPPPPPPPPPPPPPPPPPPPPPPPP",
"PPPPPPPPPPPPPPPPPPPPPPPPPPPPPPPPPPPPPPPPPPPPPPPPPPPPPPPPPPPPPPPP",
"PPPPPPPPPPPPPPPPPPPPPPPPPPPPPPPPPPPPPPPPPPPPPPPPPPPPPPPPPPPPPPPP",
"PPPPPPPPPPPPPPPPPPPPPPPPPPPPPPPPPPPPPPPPPPPPPPPPPPPPPPPPPPPPPPPP",
"PPPPPPPPPPPPPPPPPPPPPPPPPPPPPPPPPPPPPPPPPPPPPPPPPPPPPPPPPPPPPPPP",
"PPPPPPPPPPPPPPPPPPPPPPPPPPPPPPPPPPPPPPPPPPPPPPPPPPPPPPPPPPPPPPPP",
"PPPPPPPPPPPPPPPPPPPPPPPPPPPPPPPPPPPPPPPPPPPPPPPPPPPPPPPPPPPPPPPP",
"PPPPPPPPPPPPPPPPPPPPPPPPPPPPPPPPPPPPPPPPPPPPPPPPPPPPPPPPPPPPPPPP",
"PPPPPPPPPPPPPPPPPPPPPPPPPPPPPPPPPPPPPPPPPPPPPPPPPPPPPPPPPPPPPPPP",
"PPPPPPPPPPPPPPPPPPPPPPPPPPPPPPPPPPPPPPPPPPPPPPPPPPPPPPPPPPPPPPPP",
"PPPPPPPPPPPPPPPPPPPPPPPPPPPPxPPPPPPPPPPPPPPPPPPPPPPPPPPPPPPPPPPP",
"PPPPPPPPPPPPPPPPPPPPPPPPPPPPL-PPPPPPPPPPPPPPPPPPPPPPPPPPPPPPPPPP",
"PPPPPPPPPPPPPPPPPPPPPPPPPPPPLF=PPPPPPPPPPPPPPPPPPPPPPPPPPPPPPPPP",
"PPPPPPPPPPPPPPPPPPPPPPPPPPPPLFk=PPPPPPPPPPPPPPPPPPPPPPPPPPPPPPPP",
"PPPPPPPPPPPPPPPPPPPPPPPPPPPPKGlk%PPPPPPPPPPPPPPPPPPPPPPPPPPPPPPP",
"PPPPPPPPPPPPPPPPPPPPPPPPPPPPHJSky%PPPPPPPPPPPPPPPPPPPPPPPPPPPPPP",
"PPPPPPPPPPPPPPPPPPPPPPPPPPPPKKFlky%PPPPPPPPPPPPPPPPPPPPPPPPPPPPP",
"PPPPPPPPPPPPPPPPPPPPPPPPPPPPPKDzgs=+PPPPPPPPPPPPPPPPPPPPPPPPPPPP",
"PPPPPPPPPPPPPPPPPPPPPPPPPPPPPP:=*$$#@X OPPPPPPPPPPPPPPPPPPPPPPPP",
"PPPPPPPPPPPPPPPPPPPPPPPPPPPPOo.#0AAVn3X&PPPPPPPPPPPPPPPPPPPPPPPP",
"PPPPPPPPPPPPPPPPPPPPPPPPPPPPo ,BAAAABe2bPPPPPPPPPPPPPPPPPPPPPPPP",
"PPPPPPPPPPPPPPPPPPPPPPPPPPPPoorMCZAABv61PPPPPPPPPPPPPPPPPPPPPPPP",
"PPPPPPPPPPPPPPPPPPPPPPPPPPPPPP<7wNZZBne2bPPPPPPPPPPPPPPPPPPPPPPP",
"PPPPPPPPPPPPPPPPPPPPPPPPPPPPPPP<rrNNMmc54PPPPPPPPPPPPPPPPPPPPPPP",
"PPPPPPPPPPPPPPPPPPPPPPPPPPPPPPP<<8rrqhkkkkhPPPPPPPPPPPPPPPPPPPPP",
"PPPPPPPPPPPPPPPPPPPPPPPPPPPPPPPP<<89hkkkkkkhPPPPPPPPPPPPPPPPPPPP",
"PPPPPPPPPPPPPPPPPPPPPPPPPPPPPPPPPP<;jkkkkkkkfPPPPPPPPPPPPPPPPPPP",
"PPPPPPPPPPPPPPPPPPPPPPPPPPPPPPPPPPP;fjjjjjkkhftPPPPPPPPPPPPPPPPP",
"PPPPPPPPPPPPPPPPPPPPPPPPPPPPPPPPPPP;fdafhhkkkhftPPPPPPPPPPPPPPPP",
"PPPPPPPPPPPPPPPPPPPPPPPPPPPPPPPPPPP;au>hkkkkkkhf;PPPPPPPPPPPPPPP",
"PPPPPPPPPPPPPPPPPPPPPPPPPPPPPPPPPPPP;;ikkkkkkkkft;PPPPPPPPPPPPPP",
"PPPPPPPPPPPPPPPPPPPPPPPPPPPPPPPPPPPP;;pjkkkkkkkfft;PPPPPPPPPPPPP",
"PPPPPPPPPPPPPPPPPPPPPPPPPPPPPPPPPPPP;;ffjkkkkkkhhft;PPPPPPPPPPPP",
"PPPPPPPPPPPPPPPPPPPPPPPPPPPPPPPPPPPPP;kkkkkkkkkkkkk;;PPPPPPPPPPP"
};
