/* XPM */
static char *result[] = {
/* columns rows colors chars-per-pixel */
"64 64 239 2 ",
"   c black",
".  c #090900",
"X  c #222222",
"o  c #2C2C2C",
"O  c #2D2D2D",
"+  c gray18",
"@  c #302F28",
"#  c #283333",
"$  c #313131",
"%  c gray21",
"&  c #373737",
"*  c #333D3D",
"=  c gray22",
"-  c #393939",
";  c #3C3C3C",
":  c gray24",
">  c #3E3E3E",
",  c #3F3F3F",
"<  c #3B4409",
"1  c #3B460B",
"2  c #545104",
"3  c #585400",
"4  c #51570A",
"5  c #414A10",
"6  c #444B10",
"7  c #484D12",
"8  c #6A6704",
"9  c #6C6800",
"0  c #6E6A00",
"q  c #7E7E00",
"w  c #7F7F06",
"e  c #004444",
"r  c #004545",
"t  c #005656",
"y  c #005858",
"u  c #005A5A",
"i  c #005B5B",
"p  c #005C5C",
"a  c #006C6C",
"s  c #006D6D",
"d  c #007070",
"f  c #007171",
"g  c #007272",
"h  c #007373",
"j  c #057373",
"k  c #007575",
"l  c #007676",
"z  c #007777",
"x  c #057676",
"c  c #007878",
"v  c #007979",
"b  c #007A7A",
"n  c #007B7B",
"m  c #007C7C",
"M  c #007D7D",
"N  c #037D7D",
"B  c #007E7E",
"V  c #007F7F",
"C  c #067E7E",
"Z  c gray25",
"A  c #414141",
"S  c #464646",
"D  c gray28",
"F  c #424C4C",
"G  c #484848",
"H  c #494949",
"J  c #4B4B4B",
"K  c #515151",
"L  c gray32",
"P  c #535353",
"I  c gray33",
"U  c #565656",
"Y  c gray34",
"T  c #5F5F5F",
"R  c #67675C",
"E  c #6D6C5C",
"W  c #626262",
"Q  c gray39",
"!  c #646464",
"~  c gray40",
"^  c #676767",
"/  c DimGray",
"(  c #6F6F6F",
")  c #7B7B67",
"_  c gray44",
"`  c gray46",
"'  c #7B7B7B",
"]  c #7C7C7C",
"[  c #808000",
"{  c #828200",
"}  c #9A9A00",
"|  c #B0A900",
" . c #BBB400",
".. c #BFB804",
"X. c #ABAE10",
"o. c #C6BF00",
"O. c #CCC400",
"+. c #DCD100",
"@. c #E0D400",
"#. c #F2EB00",
"$. c #F8F000",
"%. c #FAF200",
"&. c #008080",
"*. c #038080",
"=. c #038181",
"-. c #008282",
";. c #008383",
":. c #008484",
">. c #008585",
",. c #008686",
"<. c #008888",
"1. c #038888",
"2. c #008A8A",
"3. c #008B8B",
"4. c #008C8C",
"5. c #008D8D",
"6. c #008E8E",
"7. c #038F8F",
"8. c #098A8A",
"9. c #009393",
"0. c #059090",
"q. c #069090",
"w. c #009595",
"e. c #009696",
"r. c #009797",
"t. c #099191",
"y. c #0D9393",
"u. c #089494",
"i. c #0F9494",
"p. c #009898",
"a. c #009999",
"s. c #039A9A",
"d. c #059B9B",
"f. c #009E9E",
"g. c #099C9C",
"h. c #0F9F9F",
"j. c #00A1A1",
"k. c #00A2A2",
"l. c #00A3A3",
"z. c #00A4A4",
"x. c #03A5A5",
"c. c #06A6A6",
"v. c #0BA2A2",
"b. c #0CA3A3",
"n. c #09A7A7",
"m. c #0EA4A4",
"M. c #0FAAAA",
"N. c #1DA9A9",
"B. c #1DABAB",
"V. c #1DACAC",
"C. c #1DADAD",
"Z. c #1DAEAE",
"A. c #1DAFAF",
"S. c #1DB0B0",
"D. c #1DB1B1",
"F. c #1DB2B2",
"G. c #22A6A6",
"H. c #23A7A7",
"J. c #27AEA5",
"K. c #22AAAA",
"L. c #2BAFAF",
"P. c #32B9A5",
"I. c #20B0B0",
"U. c #23B1B1",
"Y. c #27B2B2",
"T. c #20B4B4",
"R. c #23B5B5",
"E. c #27B6B6",
"W. c #2CB0B0",
"Q. c #2DB1B1",
"!. c #2AB4B4",
"~. c #2AB7B7",
"^. c #2CB5B5",
"/. c #2DB5B5",
"(. c #2FB6B6",
"). c #2CB8B8",
"_. c #748080",
"`. c #47B5B5",
"'. c #4FBDB0",
"]. c #42B9B9",
"[. c #42BABA",
"{. c #42BBBB",
"}. c #42BCBC",
"|. c #42BEBE",
" X c #45BFBF",
".X c #51BEB0",
"XX c #6FBCBC",
"oX c #53C0B0",
"OX c #55C2B0",
"+X c #57C4B0",
"@X c #7DC9B8",
"#X c #48C0C0",
"$X c #4CC1C1",
"%X c #51C3C3",
"&X c #6AC2C2",
"*X c #6DC6C6",
"=X c #70C7C7",
"-X c #74C8C8",
";X c #77CACA",
":X c #7ACBCB",
">X c #848484",
",X c #898989",
"<X c #8B8B8B",
"1X c gray58",
"2X c #979797",
"3X c #9D9D9D",
"4X c #9F9F9F",
"5X c #A2A2A2",
"6X c gray64",
"7X c #A4A4A4",
"8X c #A7A7A7",
"9X c #A0AAAA",
"0X c #AFAFAF",
"qX c #B1B1B1",
"wX c #B2B2B2",
"eX c gray",
"rX c #94CFCF",
"tX c #8FD4D4",
"yX c #8FD5D5",
"uX c #92D8D8",
"iX c #99DADA",
"pX c #9CDCDC",
"aX c #9EDDDD",
"sX c #ADDADA",
"dX c #A9E0E0",
"fX c #ACE3E3",
"gX c #ACE4E4",
"hX c #AFE5E5",
"jX c #B2E5E5",
"kX c #B6E7E7",
"lX c #B8E8E8",
"zX c #BBE9E9",
"xX c #C0C0C0",
"cX c #C1C1C1",
"vX c #C6C6C6",
"bX c #CDCDCD",
"nX c #D0D0D0",
"mX c #CBE5E5",
"MX c #D5F3F3",
/* pixels */
": = = = = = = = = = = = = = = = = = = = = = = = = = = = = = = = = = = = = = = = = = = = = = = = = = = = = = = = = = = = = = = = ",
"; x c c c c c c c c c c c c c c c c c c c c c c c c c c c c c c c c c c c c c c c c c c c c c c c c c c c c c c c c c c c c c * ",
"; G.s.p.5.l d B.7.4.4.4.4.l d B.s.5.4.4.4.l d B.7.4.4.4.4.l d B.7.4.4.4.4.l d B.7.4.4.4.4.l d B.7.4.4.4.4.l d B.7.4.4.4.4.4.b * ",
"; G.I.I.I.*.r a B.I.I.I.I.*.r a B.I.I.I.I.*.r a B.I.I.I.I.*.r a Z.T. X#XU.*.r a ].#X#XU.I.*.r a B.I.I.I.I.*.r a B.s.5.4.r.5.b * ",
"; G.I.I.I.N m 3.C.I.I.I.I.N m 3.C.I.I.I.I.N m 3.C.I.I.I.I.N m 3.D. X=XiX!.N m 3.}.#XU.I.I.N m 3.C.I.I.I.I.N m 3.r.5.4.4.r.5.b * ",
"; G.I.I.I.1.p y y y y y y y y y y y y y y y y y y y y y y y y y y y y y y y y y y y y y y y y y y y y y y y y y y y <.r.p.5.b * ",
"; G.I.I.I.I.*.c f d d d d d d d d d d d d d d d d d d d d d d d d d d d d d d d d d d d d d d d d d d d d d d d d u <.r.p.5.b * ",
"; 0.,.dX^.uX!.7.4.4.4.4.4.4.4.4.4.4.4.4.4.4.4.4.4.4.4.4.4.4.4.4.4.4.4.4.4.4.4.4.4.4.4.4.4.4.4.4.4.4.4.4.4.4.4.4.g u 9.,.dXi.b * ",
"; x f -.V.fX%Xc.z.z.z.z.z.z.z.z.z.z.z.z.z.z.z.z.A.I.I.I.T.T.T.T.T. XR. XR. XR. XR.T.T.T.I.I.I.x.z.z.z.z.a.p.p.5.g u v f -.3.b * ",
"; j m 3.C.fX:Xn.z.z.z.z.z.z.z.z.z.z.z.z.z.z.A.I.I.I.I.T.T.T.T.T. XR. XR. XR. XR.T.T.T.I.I.I.x.z.z.z.z.a.p.p.p.5.g u k m 3.4.b * ",
"; d.z.A.I.fX:Xn.z.z.z.z.z.z.z.z.z.z.z.z.A.I.I.I.I.T.T.T.T. XR. XR. XR. XR. XR.T.T.T.I.I.I.x.z.z.z.z.a.l.a.p.p.5.g u 9.l.z.6.b * ",
"; G.I.I.I.fX:Xn.z.z.z.z.z.z.z.z.z.z.A.I.I.I.I.T.T.T.T.T. XR. XR. XR. XR. XR.T.T.T.I.I.I.x.A.x.z.z.a.l.a.p.5.4.4.g u 9.l.z.6.b * ",
"; G.I.I.I.fX:Xn.z.z.z.z.z.z.z.A.I.I.I.I.I.T.T.T.T. XR. XR. XR. XR. XR. XR.T.T.T.I.I.I.x.A.x.z.z.a.l.a.p.5.4.4.4.g u 9.l.A.7.b * ",
"- G.I.I.I.fX:Xn.z.z.z.z.z.A.I.I.I.I.I.T.T.T.T.T. XR. XR. XR. XR. XR. XR.T.T.T.I.I.I.x.A.x.z.z.a.l.a.p.p.p.5.4.4.g u f.z.A.7.b * ",
"% G.I.I.I.fX:Xn.z.z.z.A.I.I.I.I.I.T.T.T.T.T.T. XR. XR. XR. XR. XR. XR.T.T.T.I.I.I.x.A.x.z.z.a.l.a.p.p.p.5.4.4.4.g u f.A.I.7.b * ",
"% 0.,.dX^.fX:Xn.z.A.I.I.I.I.I.I.T.T.T.T.T.T. XR. XR. XR. XR. XR. XR.T.T.T.I.I.I.x.A.x.z.z.a.l.a.p.p.p.5.4.4.4.4.g u 9.,.dXi.b * ",
"& x f -.V.fX:XY.I.I.I.I.I.I.T.T.T.T.T. XR. XR. XR. XR. XR. XR. XR.T.T.T.I.I.I.I.I.x.z.z.z.z.a.p.p.p.5.4.4.>.3.4.g u v f -.3.b * ",
"A j m 3.C.fX:XY.I.I.I.I.T.T.T.T.T.T. XR. XR. XR. XR. XR. XR. XR.T.T.T.I.T.I.I.I.x.z.z.z.z.a.p.p.p.5.4.4.4.>.3.4.g u k m 3.4.b * ",
", d.z.A.I.fX:XY.I.I.T.T.T.T.T.T.T. XR. XR. XR. XR. XR. XR. XR.T.T.T.I.T.I.I.I.x.z.z.z.z.a.l.a.p.5.r.5.4.>.3.4.4.g u f.z.A.7.b * ",
", G.I.I.I.fX:XY.T.T.T.T.T.T.T.T. XR. XR. XR. XR. XR. XR. XR.T.T.T.I.T.I.I.I.x.z.z.z.z.a.l.a.p.5.r.5.4.4.>.3.4.4.g u f.A.I.7.b * ",
", G.I.I.I.fX:XE.T.T.T.T.T.T.T. XR. XR. XR. XR. XR. XR. XR. XR.T.I.T.I.I.I.x.z.z.z.z.a.l.a.p.5.r.5.4.4.4.4.4.4.4.g u f.A.I.7.b * ",
"Z G.I.I.I.fX:XE.T.T.T.T. XR. XR. XR. XR. XR. XR. XR. XR. XR.T.I.T.I.I.I.x.A.x.z.z.a.l.a.p.p.p.5.4.4.4.>.3.4.4.4.g u N.I.I.7.b * ",
"> G.I.I.I.fX:XE.T.T.T. XR. XR. XR. XR. XR. XR. XR. XR. XR.T.I.T.I.I.I.x.A.x.z.z.z.z.a.p.p.p.5.4.4.4.>.3.4.4.4.4.g u N.I.I.7.b * ",
", 0.,.dX^.fX:XE.T.T. XR. XR. XR. XR. XR. XR. XR. XR. XR.T.I.T.I.I.I.x.A.x.z.z.z.z.a.p.p.p.5.r.5.4.>.3.4.4.4.r.5.g u 9.,.dXi.b * ",
"Z x f -.V.fX:XE.T. XR. XR. XR. XR. XR. XR. XR. XR. XR.T.I.T.I.I.I.x.A.x.z.z.z.z.a.p.p.p.5.r.5.4.>.3.4.4.4.4.4.4.g u v f -.3.b * ",
"> j m 3.C.fX:XE. XR. XR. XR. XR. XR. XR. XR. XR. XR.T.I.T.I.I.I.x.A.x.z.z.z.z.a.p.p.p.5.r.5.4.>.3.>.3.4.4.4.r.5.g u k m 3.4.b * ",
"> d.z.A.I.fX:X$XR. XR. XR. XR. XR. XR. XR. XR. XR.T.I.T.I.I.I.I.I.x.z.z.z.z.a.l.a.p.5.r.5.4.>.3.>.3.4.4.4.r.5.4.g u f.z.z.6.b * ",
": G.I.I.I.fX:XE. XR. XR. XR. X9XbXnXnXnXnXnXnXcXxXQ.T.I.I.I.I.I.x.z.z.z.z.a.l.a.p.5.r.5.4.>.3.>.3.4.4.4.4.4.r.5.g u N.x.z.6.b * ",
"> G.I.T.T.gX:X$XR. XR. XR. XU._.~ ( _ ' ] <X2X8XeX/.I.I.I.I.I.x.z.z.z.z.a.l.a.p.p.p.5.4.4.4.>.3.>.3.4.4.4.r.5.4.g u f.z.a.5.b * ",
": G.T.T.T.gX:XE. XX.@.%.+XU.*.# T ; 4X` ' Y vX3XwXW.I.I.I.I.x.z.z.z.z.a.l.a.p.p.p.5.r.5.4.>.3.>.3.4.4.4.r.5.r.5.g u f.a.,.3.b * ",
": K.T.T.T.gX:X$XC 4 [ #.P.x.V # T ! ! ( _ ' ] <XqXW.I.I.I.x.A.x.z.z.a.l.a.p.p.p.5.r.5.4.>.3.>.3.>.3.4.4.4.r.p.5.g u f.6.M 3.b * ",
"- 0.,.dX).gX:X8.k < q +.@Xt.M # T ! ! ! ( _ ' ] 0XW.I.I.x.A.x.z.z.z.z.a.p.p.p.5.r.5.4.>.3.>.3.>.3.4.4.4.r.5.r.5.g u <.b [.q.b * ",
"% x f -.S.gX^.1.3.1 q +.OXq.M # T ! ! ! ! ( _ ' 7XL.I.x.A.x.z.z.z.z.a.p.p.p.5.r.5.4.>.3.>.3.>.3.>.3.4.r.5.r.p.5.g u v s z 2.b * ",
"% j m 3.}.hXh.,.yX7 q +.OXq.M # K H w o.O.$.) _ 6XL.x.A.x.z.z.z.z.a.p.p.p.5.r.5.4.4.4.>.3.>.3.>.3.4.4.4.r.p.p.5.g u k m 3.4.b * ",
"& d.z.|.=X-Xg.,.&X6 q o.oXq.M # S + 8 .    .E ( 6Xm.A.x.z.z.z.z.a.l.a.p.5.r.5.4.4.4.>.3.>.3.>.3.4.4.4.r.5.r.p.5.g u v m e.5.b * ",
": `.=X-XiX~.s.,.&X6 q o.oXq.M # & O 8 .    .E ! 5XL.x.z.z.z.z.a.l.a.p.5.r.5.r.5.4.>.3.>.3.>.3.>.3.4.r.5.r.p.p.5.g u v 3.r.5.b * ",
"; XX-XiXpX!.s.,.&X6 q o.oXq.M # o o 2 @ o ..E ! 5Xm.z.z.z.z.a.l.a.p.p.p.5.r.5.4.>.3.>.3.>.3.>.3.4.4.4.r.p.p.p.5.g u &.3.k.6.b * ",
"; XXiXpXkX^.s.,.{.5 q | .Xq.M # o o 2 3 0 { R ! 5Xm.z.z.z.a.l.a.p.p.p.5.r.5.4.>.3.>.3.>.3.>.3.4.4.4.r.5.r.p.p.5.g u &.3.k.6.b * ",
"; rXkXlXlX^.s.,.{.5 q | .Xq.M # o o o o o o T ! 1Xb.z.z.a.l.a.p.p.p.5.r.5.4.>.3.>.3.>.3.>.3.4.4.4.r.5.r.p.p.p.5.g u <.r.Z.7.b * ",
"; XXE.gXMX(.s.,.{.5 q } '.q.M # o o o o o S W ! 1Xb.z.a.l.a.p.p.p.5.r.5.4.4.4.>.3.>.3.>.3.>.3.4.4.4.r.p.p.p.p.5.g u <.M tXy.b * ",
"; G.*.A.gX^.s.,.3.l < 9 J.7.M # & = D G P Q ! ! 1Xb.z.z.a.p.p.p.5.r.5.4.4.4.>.3.>.3.>.3.>.3.4.4.4.r.5.r.p.p.p.5.g u v f n 3.b * ",
"; G.I.*XjX).s.,.v c ;.S.T.7.M # & X / U Q $ >X^ ,Xv.z.a.l.a.p.5.r.5.4.4.4.>.3.>.3.>.3.>.3.4.4.4.r.5.r.p.p.p.l.6.g u k m 3.4.b * ",
"; XX-XjXaX~.s.,.:.:.S.T.T.7.M # o & L I I Q ! ! ,Xv.a.l.a.p.5.r.5.r.5.4.>.3.>.3.>.3.>.3.4.4.4.4.4.r.p.p.p.p.p.5.g u &.e.l.6.b * ",
"; mXzXaXpX~.s.,.3.D.T.T.I.7.M # o o o o o o o o T u.l.a.p.p.p.5.r.5.4.>.3.>.3.>.3.>.3.>.3.4.4.4.r.5.r.p.p.p.l.6.g u <.r.l.6.b * ",
"; sXaXpX;XE.s.p.F.T.T.T.I.7.M m m m m m m m m m e.l.a.p.p.p.5.r.5.4.4.4.>.3.>.3.>.3.>.3.4.4.4.r.5.r.p.p.p.l.a.5.g u 9.l.A.7.b * ",
"; rXpX;X-XE.s.F.T.T.T.I.I.7.4.4.4.4.4.4.4.4.4.k.z.a.p.p.p.5.r.5.4.4.4.>.3.>.3.>.3.>.3.4.4.4.r.5.r.p.p.p.p.p.l.6.g u 9.l.A.7.b * ",
"; rX;X$X#X#XU.T.T.T.I.I.I.I.I.I.I.x.A.x.z.z.z.z.a.p.p.p.5.r.5.4.4.4.>.3.>.3.>.3.>.3.4.4.4.4.4.r.5.r.p.p.p.l.a.5.g u f.z.A.7.b * ",
"- 0.,.dX%XhX).T.T.I.I.I.I.I.I.I.x.A.x.z.z.z.z.a.p.p.p.5.r.5.4.4.4.>.3.>.3.>.3.>.3.>.3.4.4.4.r.5.r.p.p.p.p.p.l.6.g u 9.,.dXi.b * ",
"% x f -.{.hX%XR.I.I.I.I.I.I.I.x.A.x.z.z.z.z.a.p.p.p.5.r.5.4.4.4.>.3.>.3.>.3.>.3.>.3.4.4.4.r.5.r.p.p.p.p.p.l.z.6.g u v f -.3.b * ",
"% j m 3.}.hX:XY.I.I.I.I.I.I.x.A.x.A.x.z.z.a.l.a.p.5.r.5.r.5.4.>.3.>.3.>.3.>.3.>.3.4.4.4.4.4.r.5.r.p.p.p.l.a.l.6.g u k m 3.4.b * ",
"& d.z.|.#XhX:XY.I.I.I.I.I.x.A.x.A.x.z.z.a.l.a.p.5.r.5.r.5.4.4.4.>.3.>.3.>.3.>.3.4.4.4.4.4.r.5.r.p.p.p.p.p.l.z.6.g u f.z.A.7.b * ",
"A `.#X#XR.gX:XY.I.I.I.I.x.A.x.A.x.z.z.a.l.a.p.p.p.5.r.5.4.4.4.>.3.>.3.>.3.>.3.>.3.4.4.4.r.5.r.p.p.p.p.p.l.a.l.6.g u f.z.A.7.b * ",
", `.#XR.T.gX:XY.I.I.I.x.A.x.A.x.z.z.a.l.a.p.p.p.5.r.5.4.4.4.>.3.>.3.>.3.>.3.>.3.4.4.4.4.4.r.5.r.p.p.p.p.p.l.z.6.g u f.z.A.7.b * ",
", K.T.T.T.gX:XY.I.I.x.A.x.A.x.A.x.a.l.a.p.p.p.5.r.5.4.4.4.>.3.>.3.>.3.>.3.>.3.4.4.4.4.4.r.5.r.p.p.p.p.p.l.z.z.6.g u f.z.A.7.b * ",
", K.T.T.T.gX:XY.I.x.A.x.A.x.A.x.z.z.a.p.p.p.5.r.5.4.4.4.>.3.>.3.>.3.>.3.>.3.4.4.4.4.4.r.5.r.p.p.p.p.p.l.a.l.z.6.g u f.A.I.7.b * ",
", 0.,.dX).gX:XY.I.I.x.A.x.A.x.z.z.a.p.p.p.5.r.5.4.4.4.>.3.4.4.>.3.>.3.>.3.>.3.4.4.4.r.5.r.5.r.p.p.p.p.p.l.z.z.6.g u 9.,.dXi.b * ",
"Z x f -.S.gX:XY.I.x.A.x.A.x.z.z.a.p.p.p.5.r.5.4.4.4.4.4.4.4.>.3.>.3.>.3.>.3.4.4.4.4.4.r.5.r.p.p.p.p.p.l.a.l.z.z.m i v f -.3.b * ",
"> j m 3.C.fX:X-X-X-X-X-X-X-X-X-X-X-X-X-X-X-X-X-X$X#X#XR.T.I.x.z.z.z.A.T. X#X#X#X#X#X#X#X#X#X#X#XR.T.T.T.T.T.T.T.=.i k m 3.4.b * ",
"> d.z.A.I.fXlXlXlXlXlXlXlXlXlXlXlXlXlXlXlXlXlXlXaXpXpXpX;X-X$X#X#X=X-XiXpXpXpXpXpXpXpXpXpXpXpXpXpXpXpX;X-X-X-X$Xq.M j.z.A.7.b * ",
": G.I.I.I.I.I.I.I.I.I.I.I.I.x.z.z.z.a.p.p.p.p.p.p.p.5.>.:.M m m m m ;.3.4.r.p.p.p.p.p.l.z.A.I.I.I.I.I.I.I.I.I.I.I.I.I.I.I.7.b * ",
"> G.I.I.I.s.,.dX^.I.I.I.I.s.,.dXM.a.p.p.p.p.h Z.s.5.>.:.M c f w.B m ;.3.r.p.h Z.s.p.p.l.A.s.,.dX^.I.I.I.I.s.,.dX^.I.I.I.I.7.b * ",
": G.I.I.I.*.f -.V.I.I.I.I.*.f -.e.p.p.p.p.B r a 2.>.:.M m f e t v ;.:.3.r.B r a w.p.l.z.A.*.f -.V.I.I.I.I.*.f -.V.I.I.I.I.7.b * ",
"J H.I.I.I.N m 3.C.I.I.I.I.N m 3.r.p.p.p.p.n m 3.4.>.:.M m f d z ;.:.3.r.p.n m 3.r.p.l.A.I.N m 3.C.I.I.I.I.N m 3.C.I.I.I.I.7.b F ",
"P I I I I I I I I I I I I I I I I I I I I I I I I I I I I I I I I I I I I I I I I I I I I I I I I I I I I I I I I I I I I I I I "
};
