/* XPM */
static char *_3461_2a3849622b5d6e3ba966b08e8377e1ef63b27938040c63e47fa600792ecdfa77[] = {
/* columns rows colors chars-per-pixel */
"64 64 109 2 ",
"   c #563215",
".  c #5B3515",
"X  c #57351A",
"o  c #5B361A",
"O  c #5D391D",
"+  c #62361A",
"@  c #633B1D",
"#  c #693F1E",
"$  c #5E3B20",
"%  c #623E22",
"&  c #683F21",
"*  c #643C2A",
"=  c #65431E",
"-  c #68421E",
";  c #654125",
":  c #6B4324",
">  c #6D4A26",
",  c #66442A",
"<  c #6A452A",
"1  c #67482C",
"2  c #6D492D",
"3  c #704626",
"4  c #744927",
"5  c #70462A",
"6  c #734C2D",
"7  c #784D2D",
"8  c #76522E",
"9  c #7A532E",
"0  c #7D582E",
"q  c #6D4732",
"w  c #6E4B31",
"e  c #6F4F38",
"r  c #734E32",
"t  c #784E33",
"y  c #73493B",
"u  c #755135",
"i  c #7B5335",
"p  c #7D5936",
"a  c #765439",
"s  c #7B563A",
"d  c #7D593D",
"f  c #7F613F",
"g  c #7C5641",
"h  c #7E5B41",
"j  c #7F6149",
"k  c #815636",
"l  c #815936",
"z  c #81563A",
"x  c #835B3C",
"c  c #895E3E",
"v  c #86623E",
"b  c #8B623F",
"n  c #835E42",
"m  c #885F42",
"M  c #856144",
"N  c #8B6345",
"B  c #8E6946",
"V  c #866449",
"C  c #8B664A",
"Z  c #8D694C",
"A  c #916645",
"S  c #936A46",
"D  c #916749",
"F  c #936C4C",
"G  c #996E4D",
"H  c #96714F",
"J  c #9B714D",
"K  c #8B6452",
"L  c #8E6B51",
"P  c #936E52",
"I  c #996E53",
"U  c #926D59",
"Y  c #957154",
"T  c #9B7354",
"R  c #9F7857",
"E  c #967459",
"W  c #9B765A",
"Q  c #9D795C",
"!  c #A17655",
"~  c #A37A56",
"^  c #A0775B",
"/  c #A37B5C",
"(  c #A97E5D",
")  c #937762",
"_  c #9D7763",
"`  c #9D7C62",
"'  c #9E7768",
"]  c #9C7F6D",
"[  c #A37E62",
"{  c #AB7F64",
"}  c #A17D68",
"|  c #A7825E",
" . c #AB825E",
".. c #A58164",
"X. c #AA8364",
"o. c #AF8867",
"O. c #A6846A",
"+. c #AB856A",
"@. c #AD896C",
"#. c #B18665",
"$. c #B38966",
"%. c #B28B6C",
"&. c #B98D6B",
"*. c #B9916E",
"=. c #AF8C70",
"-. c #B38D71",
";. c #B88F71",
":. c #B69173",
">. c #BA9272",
/* pixels */
"s P N % a a s E ..j ; a T ..N s a V E ; % 2 s I i , x r n ) O.a : k { Y n a g L Z X : t n E w r u p Z ] ' y , C ..H f u d W a X ",
"B N d ; u h L V E d , Z R Z m p u r a d 2 p P B t : w C V V E 1 k S R Z n h , e h x 3 k P N , ; p v V Z K $ V I T v p u 2 a d h ",
"-.Z s x O Z ..u u u Z O.x d i x ; $ q +.Z m %.i x s o ..E a a a G #.i i s h % , s @.p W { r V w 2 =.m a g h | T 8 8 d d O $ Z +.",
"I m L %.a C V % w Y O.Y W N r I g Z o.Q m d P B ^ [ a P a $ q O.{ D T p d L u E X.Y p B N N =.K r E $ , j ..Q F Y p M C a ..| B ",
"P N N Y [ n 1 n s n Z I u 6 d D r C W 2 r x Y p F R W r s n h V F B 2 u h V d L F : u v Y M Z ..Y w j p d C H M , r K N a ` M = ",
"N i t F +.n , Q a , w n % r s s d d N < p F x 7 s W +.< s U w % u x @ r a d e M d ; v B d , Z Q Q O L V > 2 p 8 : d a s h d > > ",
"x % < T C n n P , X < o r s s @ r s i r / / z . z Y B n V Z X , @ O d n 8 ; 6 d 8 d %.F 8 O M B Z s C d O % O > i x 2 * i x p b ",
"%.i @ s r P W r u Y +.+.n Z %.o.B z P x x / X.% , z a W L a a ` @.X.u W o...d C F 8 B | R   i u s ..V e a @.+.Y s [ %.W i Y z p ",
"-.m p ! ^ ^ P N s V Z [ 2 i / ` m d m N F T #.i N T W Q L m d N Y Q + Z [ ^ t z N B D X.^ 4 R R W T Y d d K Q K : Y | Z 8 M V D ",
"{ N m ^ o.P V I n 2 r P 2 s I N p s i m N Y X.p F o.@.C C P a r u N t N A A t k i A m ^ { t F o.| M B Z s q n s : B B v p 8 n n ",
"F c r i F x x P n r $ s Z Y M d d s i O < N A s 6 s Z z N B s % < a P P m t z k 5 @ i m N z 7 c B p S N y % w C T H p 0 p y q * ",
"S S m @ i i t @   < s y p s s u I +.X.i x P F Y p # p 7 r + + > s d i z k k [ o.[ r B U P F & 3 p 4 : + % u g s u p 0 v / -.K g ",
"F I N : F ^ P < D Z m % Z Q Y r E +.Y Y Z m P E p 4 Y / k : S D s w Y T S p ( R I W V Z L P i x T ~ 4 p F M r a Q Y l b / E ` U ",
"G F c l X.%.W m Q / C , Q @./ d s n P Q n i I B n N X.#.G A ( ! h , O.@.R 6 N B P W r n I L s D %.X.S J ~ J 2 d =.O.B p N P _ U ",
"S c i k m B R %.m m Z C Z P P d ; u P s % 2 F x t x T A ( ( i N L K V F N p . z P u $ h L a u m D S  .J 0 F P V Z E m , $ Z n y ",
"z : 4 B m B Y P ..P s d d d a s u r s { X.P x + s D k S I ! ( m a h j a p u i 8 n +.` L r o Z N x H H | ~ p s h h h a d r i I +.",
"p i i b p s C M Q Y n h 1 g L q u x Y / X.G i i x N i N V m O.Z h a 1 Z Z < s m R ^ { A 9 7 N z d m m P ..M d u 1 Y s 5 x S R [ ",
"i N C u d n u u C P V s o V [ ; 4 Y ( F G m z S z t z p u u V L M a X P L $ w R [ G S c x Y i s n s w d C C h w % +.d . s { ^ A ",
"Y V 2   +.Y 1 O u < % p i t t + 2 p z D I T S x % 5 %.n 1 % n o ; l p z 2 O s t s I I P N p X V } n % ; a O w d s s % t i t c T ",
"D x d [ Q P V w Y Y M C P N i 4 D N N N 3 4 S i B / W I a u E L N B D z i t D B m x & x B r E / W N r n ..M L C C h i r D A c i ",
" .S A #.N z B Y Q Y P V V u w d x P | z t N / m R / d V L E ` E D N C u r n x / G k k S ~ c ~ T V C Z E E Y C V C 1 r x D ^ N p ",
"#.J b B i i x @.P L C s h r , a r C X.2 R o.{ T D N s u Y O.L L M r d , , d t I ! 7 ( &.( G b x 6 a ....Z Z d d h % 2 x i / F p ",
"7 A V . d s p P ..n o u [ +.B x s V P ; + # p F r & n w V E O.w # c @.R N p x D m + + # x F 2 1 V 6 V ` Q ; 1 Z +.Q M u s Y r X ",
"[ F u u O V Q n N s r ` D x l u , ; 2 P p x ^ m i , $ ` L h L 2 x ~ N x z u * : i Y 7 S E h w , , } C M V 1 Z Q M d d 6 : ; m P ",
"+.L h L $ L Q w e h Y +.M d u M 2 , d o.N n o.x m Z % ` L 1 a V R ( z x u M , w C +.d P [ a L a 1 @.d w n Z / E s p d s ; r Y [ ",
"L n E =.n Z j O w E O.V L j f Y n P +.Z x x D m / / n m u ; a } / B Z a V Y h E +.V s V Z L O.Q d Z , , d ..E Z E u N B s %./ V ",
"F N p D @.n O E h e j W 1 1 a Z a M P ; , c T x N T =.w u L e d L P ; w j j a L V o i D N p F [ } % M V d p F N O u B V r Y a O ",
"x 6 7 Y Q n u E 1 1 ; , 1 a e , u d s 6 G F i & x Y W 6 M Z 1 % , , w e e 1 g h d 7 Y S k : N T Y > Z n % ; , < 2 x ; 2 x s u a ",
"P , % Z Z n Z V 1 : u 7 p z S 8 u s V u T X.x # t D D N Z V ; u 7 7 x N V w a s s t +.E u o n Z V V L d , 4 i s d m z r s n a M ",
"-.x % x a P Q i p T %.%.l S $.$.B d D d x R o.# > x r T Y r s Q &.( k T -.=.a Z F x N { / @ u i n [ m r x -.%.W s o.>.W s P h a ",
"&.N z #.X.R P S u p N H > 4 T T n a x D P T &.i F X.X./ P C d s S S . V W P m u z G A (  .7 ~ $.[ P E n z s I m o I I Z r h C E ",
"/ c k G / S c Y M 4 : N p m F c s i r i i F T z m I ( m C F d , 6 N d N Z n r a k 4 c G J 7 S T ^ m U N i < i n z F B n s u u u ",
"G N i 4 N x p N i , , t D F c i p B x ; t c F x i u C d d V r % < d L Z M 8 x B z + n m K z 7 p N n n z u = > f F F n i m V w * ",
"D G x % r p r O . , c s i i x t / &.#.z N I Y Y r $ d u 2 O . p g s u p 8 f / &.{ z m U P I , : k t & o X p p a p p r N =.-.L a ",
"S R B r / @.E 2 / R m O F o.W s D ^ F / D m P P m d [ %.m i X.P s ; ` @.J i R Y D { m m U P r N %.{ t C ..Z > u +.[ D x [ Y E W ",
"G N x p ^ / W Y I P Z r Q o.R s r s E C i r I N x x / / I I G Y h a ..[ F l 6 N ^ K * m I m u H { ^ W P L Q a M ..X.N t r L Y V ",
"F i 4 N N N Y +.h Z L m B C V s < w Z n r u Z u i c N N ( ( k N L j P Z m i + p N s 5 n B 7 p d D D X.Y d C C Z K m m t O V B u ",
"k : 5 S p B P I -.P y a h a s s i s u O.-.[ s + s I i G J J &.x u a s d i 6 M u m ;.-.F r . B N z G B | +.s a a m y s t z p B :.",
"k x c c s x d d Y Y Z d + h Q , u M X.Q ^ D t N c x i k p k / H M d O Y Y ; 8 F #.I Y m s N c k i z v M | L j w * [ n % s / R T ",
"x S x : D x r 2 n M s a < h W O 2 N R F D S N N s 5 G z 8 u x d p u 1 V C . i D I I P C M C > z A k 2 u V a s u < [ r & p Y R B ",
"J z 6 & X.E r % d 1 ; d a d u ; i i k B A S G k , i #.n w % a , 2 p M a , ; s t z F B P B u # N %.p ; 2 x O y n g s ; , x 7 N D ",
"S l N +.W B m t Q Q Y L E V u u b G A c # - G t I %.B I n s O.Y C Y Z f s i F P N k + r N u ../ F B p N } Y Z K U s s n Y F c 7 ",
"X.T D / V m C _ L E Z d d u , i x G ( k A ! ( D P I n n L ..L E V p M > < d h Q R p T  .{ N Q B s M I Q P P P n g ; r s z ..S c ",
"^ T F t i s n +...Z d s M x 6 p 7 b / 4 A ! / G B t d w L O.) V s p N p 6 s u Y E 2 A T R D n d u u Q [ W z s s C u r s i X.m 4 ",
"s N n % a h a Z Q h O d ....B d p z P & + # i I r % r h V L ..1 = v #./ N m 2 Z M O . - v P % ; d d M Q Y + r Y @.T j d u B i + ",
"+.N s s . Z O.s M u M ..M p d u , . % ..m x %.i i 6 < [ Y a h w B | l p t t * . u ..v H ^ u h , 2 @.Z d i t / E a u d > O O N { ",
"[ Z m ` 2 V P ; w L Y Q H p r C u u L O.n x { N D Y , Y V ; u Y T | v d d Z r n T | u B R d Q n y [ 2 < V R T Y B p f s r N ^ ^ ",
"P m L +.Z V x , u Z [ F C d d I h Z =.h s n C m ^ / A v u 1 d E ~ S v s n P u Q / d p M B V / Q V m q r p | Y C f a C L a +.I d ",
"U x z P -.p , Y d 8 h L , 2 s K p h Y O 1 V P s z ! $.: u Y a a n Z O w V h s C M O u M Z u N ^ R $ C V s r L n O a h n h V a $ ",
"z * 6 Y T d u H , O X % w a w $ w s d e E ` i % z I T t h Z $ o $ % u r w $ r s a a @.B > # S R P r Z d % X % ; r u < % a h a h ",
"G 3 & N s Z P m > h L Z n V E Z d v x 7 Y ~ G + r n x P P V 1 V Z m d L U C d h Z r R ^ M . k z n L Z s e Z L M V P B V s V h h ",
"*.c : N x Y Y g d L O.@.s N @.@.M d D c b J &.> r N V ) L d u / +.@.6 E =...d m M x N / ( @ x m L ` V a n ` =.Y w } -.[ p B V d ",
"$.B l %.*.Q U K a a g I % r J B x p p D A ! #.l Y -.+.` L C u u V m . p Y D d p l T F / { k ( %.} E L V a a Z n + Z Y x i s c Y ",
"J v i v Y n n W V q % n N D F p i i 6 3 7 b J i s B E h V Y h % , v D T Z p u i u : 7 N G 7 c D E d Y V u % r M C P N i i 7 : 3 ",
"S B p : n n y a q < r t x c b i b J G > 7 N T c t 4 m i a u w , r s M v p x D Y N : x D F N 5 t n u s 6 w 6 r d C n i m F T k : ",
"H H b = p N p O * r z p x x x 9 ! &./ V B P C R t # c c u O , h d p d x l u %.@.[ x F F F F < 6 x N ; # 2 s s s d x d m %.o.Y x ",
"D P B p O.*.Q 8 X...N O R -.X.k N E K +.K a Y Y c b #.&.S l %.T u O =.@.` a L L U [ n m I P s P &.$.c A &.I , a :.=.L d Y F Q ..",
"E Z s i H T T | N N F p Y R I n 1 a E n 1 e Y l 7 c ! T ~ ~ v F V M E W Z a , N P h % d P h h m ! G ( G m Y x N W E M a , V L u ",
"N r 2 M v N Y X.H M N M m m m g w w M B m z b 6 i N N B R / S N M V j M M s , u N L n m n , m m c A { J N N N N V V d w w h L Z ",
"n * u B p B F M | H p u y s n y s d M ..*.R 8 @ l N u P P F #.N u a a d d u M u Z +.-.P , < V N k S D ! %.i r a e d d a s u E =.",
"t m D z s r p p F Y L d % m =.* w L } I J N p B M d a h u d T H Z r $ W Y $ r Q X.P Y m p P d i t k p x Y Y V w , @.s @ M ..Q P ",
"A A p o R V u % a s 1 u r a N $ 6 x D P F F B B > > Q h 1 , s w w d , V a O 6 m D F G B N N @ n { 7 , r a w a r w Z 2 * s m F D ",
"S x 7 p +.I a ; V h w h V s r ; k c i N l M H u u B O.V e , L e y n V a t < m p x S c B I 7 4 P [ M < r K 1 h n n a > : c k b A ",
"J 0 A >.L L L g _ } U E P C p s b G G p ; > L u R O.C W h j O.) U P I n i s A T S 7 . k D 7 %./ Z E g L O.E L E P d s c G J c 7 "
};
