/* XPM */
static char *_2730_5b07b8f7485963e4644eeb851f323c827f9d3723b3648da80d098af7d1742667_1[] = {
/* columns rows colors chars-per-pixel */
"64 64 39 1 ",
"  c #593D29",
". c #79553A",
"X c #6C6C6C",
"o c #966C4A",
"O c #509026",
"+ c #57972D",
"@ c #5F9F35",
"# c #60A036",
"$ c #61A137",
"% c #62A238",
"& c #64A43A",
"* c #66A63C",
"= c #67A73D",
"- c #68A83E",
"; c #69A93F",
": c #6AAA40",
"> c #6BAB41",
", c #6CAC42",
"< c #6DAD43",
"1 c #6FAF45",
"2 c #70B046",
"3 c #71B147",
"4 c #73B349",
"5 c #74B44A",
"6 c #75B54B",
"7 c #76B64C",
"8 c #7EBE54",
"9 c #7FBF55",
"0 c #B9855C",
"q c #81B051",
"w c #83B253",
"e c #8AB95A",
"r c #8DBC5D",
"t c #90BF60",
"y c #92C162",
"u c #93C263",
"i c #97C667",
"p c #9CCB6C",
"a c gray53",
/* pixels */
"555577774444********1111@@@@,,,,88887777::::====;;;;$$$$OOOO<<<<",
"555577774444********1111@@@@,,,,88887777::::====;;;;$$$$OOOO<<<<",
"555577774444********1111@@@@,,,,88887777::::====;;;;$$$$OOOO<<<<",
"555577774444********1111@@@@,,,,88887777::::====;;;;$$$$OOOO<<<<",
"6666,,,,eeeeqqqqwwww    ----%%%%@@@@uuuutttt4444$$$$,,,,====>>>>",
"6666,,,,eeeeqqqqwwww    ----%%%%@@@@uuuutttt4444$$$$,,,,====>>>>",
"6666,,,,eeeeqqqqwwww    ----%%%%@@@@uuuutttt4444$$$$,,,,====>>>>",
"6666,,,,eeeeqqqqwwww    ----%%%%@@@@uuuutttt4444$$$$,,,,====>>>>",
"rrrr    pppp&&&&;;;;    2222    55559999yyyyiiii    ++++####    ",
"rrrr    pppp&&&&;;;;    2222    55559999yyyyiiii    ++++####    ",
"rrrr    pppp&&&&;;;;    2222    55559999yyyyiiii    ++++####    ",
"rrrr    pppp&&&&;;;;    2222    55559999yyyyiiii    ++++####    ",
"    XXXX        3333            @@@@    <<<<    ....        ....",
"    XXXX        3333            @@@@    <<<<    ....        ....",
"    XXXX        3333            @@@@    <<<<    ....        ....",
"    XXXX        3333            @@@@    <<<<    ....        ....",
"oooo....oooo0000    oooo........            XXXX....oooo    ....",
"oooo....oooo0000    oooo........            XXXX....oooo    ....",
"oooo....oooo0000    oooo........            XXXX....oooo    ....",
"oooo....oooo0000    oooo........            XXXX....oooo    ....",
"....    oooooooo....oooo            ........    ............0000",
"....    oooooooo....oooo            ........    ............0000",
"....    oooooooo....oooo            ........    ............0000",
"....    oooooooo....oooo            ........    ............0000",
"0000    ........aaaa........00000000....00000000....oooo....oooo",
"0000    ........aaaa........00000000....00000000....oooo....oooo",
"0000    ........aaaa........00000000....00000000....oooo....oooo",
"0000    ........aaaa........00000000....00000000....oooo....oooo",
"0000....00000000oooooooo........oooo    oooooooo........oooooooo",
"0000....00000000oooooooo........oooo    oooooooo........oooooooo",
"0000....00000000oooooooo........oooo    oooooooo........oooooooo",
"0000....00000000oooooooo........oooo    oooooooo........oooooooo",
"oooo........oooo....oooo....    ....oooooooo............    ....",
"oooo........oooo....oooo....    ....oooooooo............    ....",
"oooo........oooo....oooo....    ....oooooooo............    ....",
"oooo........oooo....oooo....    ....oooooooo............    ....",
"oooooooo    ........        ....................00000000....oooo",
"oooooooo    ........        ....................00000000....oooo",
"oooooooo    ........        ....................00000000....oooo",
"oooooooo    ........        ....................00000000....oooo",
"oooooooo....00000000....0000oooo    00000000....ooooooooaaaa....",
"oooooooo....00000000....0000oooo    00000000....ooooooooaaaa....",
"oooooooo....00000000....0000oooo    00000000....ooooooooaaaa....",
"oooooooo....00000000....0000oooo    00000000....ooooooooaaaa....",
"oooo........oooooooo0000....ooooXXXXoooooooo....    oooo....    ",
"oooo........oooooooo0000....ooooXXXXoooooooo....    oooo....    ",
"oooo........oooooooo0000....ooooXXXXoooooooo....    oooo....    ",
"oooo........oooooooo0000....ooooXXXXoooooooo....    oooo....    ",
"....    oooo....oooooooo0000............................00000000",
"....    oooo....oooooooo0000............................00000000",
"....    oooo....oooooooo0000............................00000000",
"....    oooo....oooooooo0000............................00000000",
"....oooo........    ....oooooooo....    0000    ....0000oooooooo",
"....oooo........    ....oooooooo....    0000    ....0000oooooooo",
"....oooo........    ....oooooooo....    0000    ....0000oooooooo",
"....oooo........    ....oooooooo....    0000    ....0000oooooooo",
"oooo....    0000....    ....    ............    ........oooooooo",
"oooo....    0000....    ....    ............    ........oooooooo",
"oooo....    0000....    ....    ............    ........oooooooo",
"oooo....    0000....    ....    ............    ........oooooooo",
"oooo....0000oooooooo....aaaaoooooooooooo........oooooooo....    ",
"oooo....0000oooooooo....aaaaoooooooooooo........oooooooo....    ",
"oooo....0000oooooooo....aaaaoooooooooooo........oooooooo....    ",
"oooo....0000oooooooo....aaaaoooooooooooo........oooooooo....    "
};
