/* XPM */
static char *result[] = {
/* columns rows colors chars-per-pixel */
"64 64 24 1 ",
"  c #231C1B",
". c #231C1C",
"X c #28200C",
"o c #2A220D",
"O c #2B220E",
"+ c #2C230E",
"@ c #2F240F",
"# c #2A2312",
"$ c #2C2514",
"% c #362A13",
"& c #382C14",
"* c #392D14",
"= c #3A2E14",
"- c #3D2E16",
"; c #3F2F17",
": c #443516",
"> c #463617",
", c #403018",
"< c #413118",
"1 c #473718",
"2 c #483818",
"3 c #553C1D",
"4 c #583E1F",
"5 c #5C4020",
/* pixels */
"# .....        $$ ...  $$ ......               $$ ....         #",
"----------------------------------------------------------------",
"4444444444444444444444444444444444444444444444444444444444444444",
"@@@@@@@@@@@@@@@@@@@@@@@@@@@@@@@@@@@@@@@@@@@@@@@@@@@@@@@@@@@@@@@@",
"XX-::::X3XX3%XXXX::X-X-XXX3XX3:X:X3XX3%XXX%X3XX3X:XX:X:X::X3XX3-",
"XX,222=X5XX5;XXXX22X,X,XXX5XX52X2X5XX5>%X%>X5XX5X2XX2X2X22X5XX5,",
"XX*222oX5XX51XXXX22X,X,XXX5XX5<X2X5XX52>%>2X5XX5X2XX2X2X22X5XX5,",
"XXo<22XX5XX52XXX%2<X,X,XXX5XX5,X2X5XX522>22X5XX5X2XX2X2X22X5XX5,",
"-XX*2=XX5XX52%XX;2,X,X,XXX5XX5,X2X5XX522222X5XX5X2XX2X2X<2X5XX5O",
",XXo=oXX5XX52;X%12*X,X,XXX5XX5*X2X5XX522222X5XX5X2XX2X2X,2X5XX5X",
"1XXXoXXX5XX521%;22&X,X,XXX5XX5&X2X5XX522222X5XX5X2XX2X2X*2X5XX5X",
"2XXXXXXX5XX522;122oX,X,XXX5XX5oX2X5XX522222X5XX5X2XX2X2X&2X5XX5X",
"<:XXXX:X5XX522,222XX,X,XXX5XX5X%2X5XX5<2222X5XX5X2XX2X2Xo2X5XX5X",
",2XXXX2X5XX522122<XX,X,XXX5XX5X&2X5XX5,222<X5XX5X2XX2X2XX2X5XX5X",
"*2:XX:2X5XX522222,XX,X,XXX5XX5X>2X5XX5*222,X5XX5X2XX2X2XX2X5XX5X",
"o22:X2=X5XX5<2222,XX,X,XXX5XX5%22X5XX5o<2<*X5XX5X2XX2X2XX2X5XX5X",
"X<22%2oX5XX5,2222*XX,X,XXX5XX5&2<X5XX5X*<*oX5XX5X2XX2X2%X2X5XX5X",
"X,22>2XX5XX5*2222&XX,X,XXX5XX5>2,X5XX5Xo*oXX5XX5X2XX2X2&X<X5XX5X",
"X*<222XX5XX5&2222oXX,X,XXX5XX522*X5XX5XXoXXX5XX5X2XX2X2;X,X5XX5-",
"Xo,22=XX5XX5o<222XXX,X,XXX5XX52<&X5XX5XXXXXX5XX5X2XX2X2,X,X5XX5,",
"XX*22oXX5XX5X,22<XXX,X,XXX5XX52,oX5XX5XXXXXX5XX5X2XX2X2,X*X5XX5,",
"XXo22XXX5XX5X*22,XXX,X,XXX5XX52*XX5XX5%XXX%X5XX5X2XX2X21X&X5XX5,",
"XXX=+XXX5XX5X&22*XX%,X,XXX5XX5<oXX5XX5;%X%;X5XX5X2XX2X<2XoX5XX5,",
"XXXoXXXX5XX5Xo<<&XX&,X,XXX5XX5*XXX5XX51;%;1X5XX5X2XX2X,2XXX5XX5,",
"XXXXXXXX5XX5XX**oXX&*X,XXX5XX5oXXX5XX521;12X5XX5X2XX2X*2XXX5XX5*",
"-XXXXX-X5XX5XXooXXX;oX,XXX5XX5XXXX5XX522122X5XX5X2XX2X&2%XX5XX5o",
",XXXXX,X5XX5XXXXXXX,XX,XXX5XX5XXXX5XX522222X5XX5X2XX2Xo2&XX5XX5X",
",XXXXX*X5XX5XXXXXXX1XX,XXX5XX5XXXX5XX522222X5XX5X2XX2XX2;XX5XX5X",
"*XXXXXoX5XX5XXXXXX%2XX,XXX5XX5XX%X5XX5<2222X5XX5X2XX2XX2,XX5XX5X",
"o-XXX-XX5XX5XXXXXX&2XX,XXX5XX5XX;X5XX5,2222X5XX5X2XX2XX21%X5XX5X",
"X,XXX,XX5XX5XXXXXX;2XX,XXX5XX5XX,X5XX5*222<X5XX5X2XX2XX22&X5XX5X",
"X*XX-*XX5XX5XXXXXX,2XX,XXX5XX5X%1X5XX5&<22,X5XX5X2XX2XX<2;X5XX5X",
"Xo-X,oXX5XX5%XXXXX1<XX,XXX5XX5X;2X5XX5o,22*X5XX5X2XX2XX,2,X5XX5X",
"XX,X,XXX5XX5;XXXX%2,XX,XXX5XX5%12X5XX5X*2<oX5XX5X2XX2XX*21X5XX5X",
"XX*-*XXX5XX51%XXX&2*X%,XXX5XX5;22X5XX5Xo<*XX5XX5X2XX2XX&22X5XX5X",
"XXo*oXXX5XX52;XXX>2oX&,XXX5XX5122X5XX5XX*oXX5XX5X2XX2XXo22X5XX5X",
"XXXoXXXX5XX521%X%22XX&,XXX5XX522<X5XX5XXoXXX5XX5X2XX2XXX22X5XX5%",
"XXXXXXXX5XX522>%>22XX;,XXX5XX522,X5XX5XXXXXX5XX5X2XX2%XX22X5XX5;",
"XXXXXXXX5XX5222>22<XX,,XXX5XX522*X5XX5XXXXXX5XX5X2XX2&XX<2X5XX5,",
"XXXXXXXX5XX5<22222,XX1,XXX5XX52<&X5XX5%XXXXX5XX5X2XX2;XX,2X5XX5,",
"XXXXXX%X5XX5,22222*XX2,XXX5XX52,oX5XX5&XXXXX5XX5X2XX<,XX*2X5XX5O",
"-XXXXX&X5XX5*22222oXX2*XXX5XX52*XX5XX5;%XX%X5XX5X2XX,1XX&2X5XX5X",
",XXXXX;X5XX5o22222XXX2&XXX5XX5<&XX5XX51&X%&X5XX5X2XX*2XXo<X5XX5X",
",%XXX%,X5XX5X<222<XXX2oXXX5XX5,oXX5XX52;%&;X5XX5X2XX&2XXX,X5XX5X",
",;XXX;*X5XX5X*222*XX%2XXXX5XX5*XXX5XX521&;1X5XX5X2XXo2XXX*X5XX5X",
"*,%X%,oX5XX5Xo<2<oXX;2XXXX5XX5oXXX5XX522;12X5XX5X2XXX2%XX&X5XX5X",
"o,;%;,XX5XX5XXO<*XXX,2XXXX5XX5XXXX5XX522122X5XX5X2XXX2&XXoX5XX5X",
"X,,&,,XX5XX5XXXOoXXX1<XXXX5XX5XXXX5XX522222X5XX5X2XXX2;XXXX5XX5X",
"X,1>1,XX5XX5XXXXXXXX2,XXXX5XX5XX%X5XX52222<X5XX5X2XXX2,XXXX5XX5X",
"X*222,XX5XX5XXXXXXX%2*XXXX5XX5XX;X5XX5<222,X5XX5X2XXX<1%XXX5XX5X",
"Xo<22,XX5XX5%XXXXXX;2&XXXX5XX5X%1X5XX5,222*X5XX5X2XXX,2&XXX5XX5X",
"XX,22*XX5XX5;XXXXXX,2oXXXX5XX5X;2X5XX5*222&X5XX5X2XXX*2;XXX5XX5X",
"XX*2<&XX5XX51XXXXXX1<XXXXX5XX5-12X5XX5&22<oX5XX5X2XXX&2,%XX5XX5X",
"XXo<,oXX5XX52%XXXX%2,XX%XX5XX5122X5XX5o<2,XX5XX5X2XXXo<1&XX5XX5%",
"XXX,*XXX5XX5<;XXXX;2*XX&XX5XX5222X5XX5X,2*XX5XX5X2XXXX*2;XX5XX5&",
"XXX*&XXX5XX5,1XXXX,2oXX;XX5XX5222X5XX5X*<oXX5XX5X2XXXX&2,XX5XX5;",
"XXXooXXX5XX5*2-XXX12XXX,XX5XX5222X5XX5Xo*XXX5XX5X2XXXXo<1XX5XX5,",
"XXXXXXXX5XX5o<1-X:2<XXX,XX5XX5222X5XX5XXoXXX5XX5X<%XXXX*2-X5XX51",
"XXXXXXXX5XX5X*21:22*XXX1XX5XX522<X5XX5XXXXXX5XX5X,;XXXX&2,X5XX52",
"%XXXXX-X5XX5Xo2222<oXX%2XX5XX522,X5XX5XXXXXX5XX5X*,XXXXo<,X5XX52",
"&XXXXX,X5XX5XX=<2<*XXX;2XX5XX52<*X5XX5XXXXXX5XX5X&1XXXXX**X5XX52",
";XXXXX,X5XX5XXo*<*oXXX,2XX5XX52,&X5XX5XXXXXX5XX5Xo2XXXXXooX5XX52",
",%XXXX,X5XX5XXXo*oXXX-12%X5XX5<*oX5XX5XXXXXX5XX5%X2%XXXXXXX5XX52",
"*&%%%%*X5XX5%XXXoXXX%*==&X5XX5*oXX5XX5%XXX%X5XX5&X=&XXXXXXX5XX5="
};
