/* XPM */
static char *result[] = {
/* columns rows colors chars-per-pixel */
"64 64 37 1 ",
"  c #28200C",
". c #373224",
"X c #413117",
"o c #483818",
"O c #4C3919",
"+ c #4F3B1B",
"@ c #4F381C",
"# c #503B1B",
"$ c #543C1C",
"% c #543D1C",
"& c #553D1D",
"* c #573D1D",
"= c #573F1D",
"- c #593F1F",
"; c #5C401F",
": c #4C412C",
"> c #5C4020",
", c #5F4120",
"< c #54442F",
"1 c #594732",
"2 c #614321",
"3 c #644421",
"4 c #644423",
"5 c #674523",
"6 c #684724",
"7 c #694724",
"8 c #6C4824",
"9 c #6C4825",
"0 c #6F4925",
"q c #6D4826",
"w c #714B27",
"e c #724C29",
"r c #744C28",
"t c #784F29",
"y c #7C512C",
"u c #7C593F",
"i c #905C34",
/* pixels */
"@@@@@@@@@@@@@@@@@@@@@@@@@@@@@@@@@@@@@@@@@@@@@@@@@@@@@@@@@@@@@@@@",
"tttttttttttttttttttttttttttttttttttttttttttttttttttttttttttttttt",
"yyyyyyyeyqeyyyyyyyyyyyyyyeyqeyyyyeyqeyyyyyyeyqeyyyyyyyyyyyeyqeyy",
"##;,,,,X6 X6*####,,#;#;##X6 X6,#,X6 X6*###*X6 X6#,##,#,#,,X6 X6;",
"oo8rrr9$i $i2oooOrro8o8oo$i $iror$i $i4+o+4$i $ioroorororr$i $i8",
"oo5rrr-$i $i0Ooo$rro8o8oo$i $iwor$i $ir4+4r$i $ioroorororr$i $i8",
"Oo-wrr$$i $ir$oo*rwo8o8oo$i $i8or$i $irr4rr$i $ioroorororr$i $i8",
";o#5r9#$i $ir*oO2r8o8o8oo$i $i8or$i $irrrrr$i $ioroororowr$i $i3",
"8oO&9-o$i $ir2o*0r5o8o8oo$i $i5or$i $irrrrr$i $ioroororo8r$i $i$",
"0O#o-#o$i $ir0+2rr>o8o8oo$i $i>or$i $irrrrr$i $ioroororo5r$i $i$",
"r$oo#oO$i $irr20rr-o8o8oo$i $i&or$i $irrrrr$i $ioroororo>r$i $i#",
"w,oooO,$i $irr8rrr$o8o8oo$i $io+r$i $iwrrrr$i $ioroororO&r$i $io",
"8rOoo$r$i $irr0rrw#o8o8oo$i $io>r$i $i8rrrw$i $iorooror$or$i $io",
"5r,oO,r$i $irrrrr8oo8o8oo$i $io4r$i $i5rrr8$i $iorooror$or$i $io",
"-rr=$r9$i $iwrrrr8oo8o8oo$i $i+rr$i $i&wrw5$i $iorooror$or$i $iO",
"#wrr*r-$i $i8rrrr5oo8o8oo$i $i>rw$i $io5w5&$i $iorooror*or$i $i$",
"o8rr4r$$i $i5rrrr>oo8o8oo$i $i4r8$i $io&5&o$i $iorooror>ow$i $i$",
"o5wrrr#$i $i>rrrr-oo8o8oo$i $irr5$i $ioo&oo$i $iorooror2o8$i $i;",
"o-8rr9o$i $i-wrrr$oO8o8oo$i $irw>$i $iooooo$i $iorooror8o8$i $i8",
"o#5rr-o$i $i$8rrw#o$8o8oo$i $ir8&$i $iooooo$i $iorooror8o5$i $i8",
"oo-rr$o$i $i#5rr8oo$8o8oo$i $ir5o$i $i+ooo+$i $iorooror0o>$i $i8",
"Oo$97#o$i $io>rr5oo*8o8oo$i $iw&o$i $i2+o+2$i $ioroorowro&$i $i8",
"$o#-#oO$i $io-ww>oo>8o8oo$i $i5oo$i $i02+20$i $iorooro8rOo$i $i8",
"$oo#oo$$i $io$55-oo>5o8oo$i $i&oo$i $ir020r$i $iorooro5r$o$i $i5",
";ooooo;$i $io#--#oo2-o8oo$i $iooo$i $irr0rr$i $iorooro>r*o$i $i-",
"8ooooo8$i $ioo##ooo8$o8oo$i $iooO$i $irrrrr$i $iorooro-r>o$i $i$",
"8OoooO5$i $iooooooO0#o8oo$i $ioo$$i $irrrrr$i $iorooro$r2O$i $i#",
"5$ooo$-$i $ioooooo*roo8oo$i $ioo*$i $iwrrrr$i $iorooro$r8$$i $io",
"-;ooo;$$i $ioooooo>roo8oo$i $ioo2$i $i8rrrr$i $iorooro#r0*#i $io",
"$8Ooo8#$i $ioooooo2roo8oo$i $ioO8$i $i5rrrw$i $iorooroorr>Oi $io",
"#5$o%5o$i $iOooooo8roo8oo$i $io*0$i $i>wrr8$i $iorooroowr2$i $io",
"o-;O8-o$i $i*ooooO0woO8oo$i $iO2r$i $i&8rr5$i $iorooroo8r8$i $io",
"o$8$8$o$i $i2Oooo*r8o$8oo$i $i*0r$i $io5rw&$i $ioroorOo5r0$i $io",
"o#5;5#o$i $i0*ooO>r5o*8oo$i $i2rr$i $io&w5o$i $ioroor$o>rr$i $iO",
"oo-5-oo$i $ir2Oo$4r-o>8oo$i $i0rr$i $ioo5&o$i $ioroor$o-rr$i $i$",
"oo#-#oo$i $ir0*o*rr$o>8oo$i $irrw$i $ioo&oo$i $ioroor$o$rr$i $i*",
"ooo#ooo$i $irr4+4rr#o28oo$i $irr8$i $iooooo$i $ioroor*o$rr$i $i2",
"ooooooO$i $irrr4rrwoo88oo$i $irr5$i $iooooo$i $ioroor>o#wr$i $i8",
"Oooooo$$i $iwrrrrr8oo08oo$i $irw>$i $i+oooo$i $ioroor2oo8r$i $i8",
"$ooooo*$i $i8rrrrr5oor8oo$i $ir8&$i $i>oooo$i $ioroow8oo5r$i $i3",
";OoooO>$i $i5rrrrr-oor5oo$i $ir5o$i $i2+oo+$i $ioroo80oo>r$i $i$",
"8$ooo$2$i $i-rrrrr#oor>oo$i $iw>o$i $i0>o+>$i $ioroo5rOo-w$i $i#",
"8*OoO*8$i $i#wrrrwooOr&oo$i $i8&o$i $ir2+>2$i $ioroo>r$o$8$i $io",
"82$O$25$i $io5rrr5oo*rooo$i $i5oo$i $ir0>20$i $ioroo-r$o$5$i $io",
"58*$*8-$i $io-wrw-oo2rooo$i $i&oo$i $irr20r$i $ioroo$r*o#>$i $io",
"-82*28$$i $io#3w5#oo8rooo$i $iooO$i $irr0rr$i $ioroo$r>Oo-$i $io",
"$88>88#$i $ioo#3-ooo0wooo$i $ioo$$i $irrrrr$i $ioroo$r2$o$$i $io",
"#80408o$i $iOoo##ooOr8ooo$i $ioo*$i $irrrrw$i $ioroo#r8$o$$i $io",
"o5rrr8o$i $i$oooooo*r5ooo$i $ioO2$i $iwrrr8$i $iorooow0*o#$i $io",
"o-wrr8o$i $i*oooooo2r>ooo$i $io*0$i $i8rrr5$i $iorooo8r>Oo$i $io",
"o$8rr5o$i $i2Oooooo8r&ooo$i $iO2r$i $i5rrr>$i $iorooo5r2$o$i $iO",
"o#5rw>o$i $i0$ooooO0woooo$i $i;0r$i $i>rrw-$i $iorooo>r8*o$i $i$",
"oo-w8-o$i $ir*oooo*r8oo+o$i $i0rr$i $i-wr8$$i $iorOoo-w0>O$i $i*",
"oo$85$o$i $iw2Oooo2r5oo>o$i $irrr$i $i$8r5#$i $ior$oo$5r2$$i $i>",
"oo#5>#o$i $i80$ooO8r&oo2o$i $irrr$i $i#5w-o$i $ior$oo#>r8$$i $i2",
"ooo--oo$i $i5r;Oo$0rooo8o$i $irrr$i $io-5#o$i $ior$ooo-w0$$i $i8",
"Ooo##oO$i $i&w0;O,rwooo8o$i $irrr$i $io#-oo$i $iow*ooo$5r;$i $i0",
"$ooooo$$i $io5r0,rr5ooo0o$i $irrw$i $ioo#oo$i $io82ooo#>r8$i $ir",
"*ooooo;$i $io&rrrrw&oo+ro$i $irr8$i $iooooo$i $io58Oooo-w8$i $ir",
">OoooO8$i $ioo9wrw5ooo2ro$i $irw5$i $iooooo$i $io>0$ooo#55$i $ir",
"2$ooo$8$i $ioo&5w5&ooo8ro$i $ir8>$i $iooooo$i $io&r$oooo&-$i $ir",
"8*ooo$8$i $iooo&5&ooo%0r+$i $iw5&$i $iooooo$i $i+or*ooooo#$i $ir",
"5>+++*5$i $i+ooo&ooo+599>$i $i5&o$i $i+ooo+$i $i>o9>oooooo$i $i9",
"1111111<u.<u1:::::::11111<u.<u1::<u.<u1:::1<u.<u1:11::::::<u.<u1"
};
